<svg width="1024" height="1024" viewBox="0 0 1024 1024" fill="none" xmlns="http://www.w3.org/2000/svg">
  <rect width="1024" height="1024" fill="url(#paint0_linear)"/>
  <g filter="url(#filter0_d)">
    <path d="M512 700 C430 630 330 630 240 650 V290 C330 270 430 270 512 340 C594 270 694 270 784 290 V650 C694 630 594 630 512 700 Z" fill="white"/>
    <path d="M512 340 V700" stroke="#E2E8F0" stroke-width="24" stroke-linecap="round"/>
    <path d="M300 380 C350 375 400 375 450 380" stroke="#10B981" stroke-width="24" stroke-linecap="round"/>
    <path d="M300 460 C350 455 400 455 450 460" stroke="#94A3B8" stroke-width="24" stroke-linecap="round"/>
    <path d="M300 540 C350 535 400 535 450 540" stroke="#94A3B8" stroke-width="24" stroke-linecap="round"/>
    <path d="M574 380 C624 375 674 375 724 380" stroke="#06B6D4" stroke-width="24" stroke-linecap="round"/>
    <path d="M574 460 C624 455 674 455 724 460" stroke="#94A3B8" stroke-width="24" stroke-linecap="round"/>
    <path d="M574 540 C624 535 674 535 724 540" stroke="#94A3B8" stroke-width="24" stroke-linecap="round"/>
  </g>
  <defs>
    <filter id="filter0_d" x="180" y="200" width="664" height="624" filterUnits="userSpaceOnUse" color-interpolation-filters="sRGB">
      <feFlood flood-opacity="0" result="BackgroundImageFix"/>
      <feColorMatrix in="SourceAlpha" type="matrix" values="0 0 0 0 0 0 0 0 0 0 0 0 0 0 0 0 0 0 127 0" result="hardAlpha"/>
      <feOffset dy="20"/>
      <feGaussianBlur stdDeviation="20"/>
      <feComposite in2="hardAlpha" operator="out"/>
      <feColorMatrix type="matrix" values="0 0 0 0 0 0 0 0 0 0 0 0 0 0 0 0 0 0 0.15 0"/>
      <feBlend mode="normal" in2="BackgroundImageFix" result="effect1_dropShadow"/>
      <feBlend mode="normal" in="SourceGraphic" in2="effect1_dropShadow" result="shape"/>
    </filter>
    <linearGradient id="paint0_linear" x1="0" y1="0" x2="1024" y2="1024" gradientUnits="userSpaceOnUse">
      <stop stop-color="#10B981"/>
      <stop offset="1" stop-color="#06B6D4"/>
    </linearGradient>
  </defs>
</svg>